<?xml version="1.0" encoding="utf-8"?>
<!-- Generator: Adobe Illustrator 19.0.1, SVG Export Plug-In . SVG Version: 6.00 Build 0)  -->
<svg version="1.1" id="Capa_1" xmlns="http://www.w3.org/2000/svg" xmlns:xlink="http://www.w3.org/1999/xlink" x="0px" y="0px"
	 viewBox="-143.6 358.3 125.1 125.1" style="enable-background:new -143.6 358.3 125.1 125.1;" xml:space="preserve">
<style type="text/css">
	.st0{fill:#FFFFFF;}
</style>
<path class="st0" d="M-19.1,410.1c-0.4-0.6-1-0.9-1.7-1l-14.9-2.3c-0.8-2.6-1.9-5.3-3.3-8c1-1.4,2.4-3.3,4.4-5.7
	c2-2.5,3.3-4.3,4.2-5.4c0.4-0.6,0.7-1.2,0.7-1.9c0-0.8-0.2-1.4-0.6-1.8c-2-2.8-6.4-7.4-13.4-13.9c-0.6-0.5-1.3-0.8-2-0.8
	c-0.8,0-1.5,0.2-2,0.7l-11.6,8.7c-2.2-1.1-4.7-2.1-7.3-3l-2.3-15c-0.1-0.7-0.4-1.3-0.9-1.8c-0.6-0.5-1.2-0.7-2-0.7H-90
	c-1.6,0-2.6,0.8-2.9,2.3c-0.7,2.7-1.5,7.8-2.4,15.2c-2.6,0.8-5,1.8-7.4,3.1l-11.2-8.7c-0.7-0.5-1.4-0.8-2.1-0.8
	c-1.2,0-3.8,1.9-7.7,5.8c-3.9,3.9-6.6,6.8-8,8.8c-0.5,0.7-0.7,1.3-0.7,1.9c0,0.7,0.3,1.3,0.8,2c3.6,4.4,6.5,8.1,8.7,11.2
	c-1.4,2.5-2.4,5-3.2,7.5l-15.2,2.3c-0.6,0.1-1.1,0.5-1.5,1.1c-0.4,0.6-0.7,1.2-0.7,1.9v18.1c0,0.7,0.2,1.3,0.7,1.9
	c0.4,0.6,1,0.9,1.7,1l14.9,2.2c0.8,2.7,1.9,5.3,3.3,8.1c-1,1.4-2.4,3.3-4.4,5.7c-2,2.5-3.3,4.3-4.2,5.4c-0.4,0.6-0.7,1.2-0.7,1.9
	c0,0.7,0.2,1.3,0.6,1.9c2.1,2.9,6.6,7.5,13.4,13.7c0.6,0.6,1.3,0.9,2,0.9c0.8,0,1.5-0.2,2-0.7l11.5-8.7c2.2,1.1,4.7,2.1,7.3,3
	l2.3,15c0.1,0.7,0.4,1.3,0.9,1.8c0.6,0.5,1.2,0.7,2,0.7H-72c1.6,0,2.6-0.8,2.9-2.3c0.7-2.7,1.5-7.8,2.4-15.2c2.6-0.8,5-1.8,7.4-3.1
	l11.2,8.8c0.8,0.5,1.5,0.7,2.1,0.7c1.2,0,3.7-1.9,7.7-5.8c3.9-3.9,6.6-6.8,8.1-8.8c0.5-0.5,0.7-1.2,0.7-1.9s-0.3-1.4-0.8-2
	c-3.9-4.8-6.8-8.5-8.7-11.2c1.1-2,2.1-4.5,3.2-7.4l15.1-2.3c0.7-0.1,1.2-0.5,1.6-1.1s0.6-1.2,0.6-1.9V412
	C-18.4,411.3-18.6,410.7-19.1,410.1z M-66.3,435.6c-4.1,4.1-9,6.1-14.7,6.1c-5.8,0-10.7-2-14.7-6.1c-4.1-4.1-6.1-9-6.1-14.7
	c0-5.8,2-10.7,6.1-14.7c4.1-4.1,9-6.1,14.7-6.1c5.8,0,10.7,2,14.7,6.1c4.1,4.1,6.1,9,6.1,14.7C-60.1,426.6-62.2,431.6-66.3,435.6z"
	/>
</svg>
