<?xml version="1.0" encoding="utf-8"?>
<!-- Generator: Adobe Illustrator 19.0.1, SVG Export Plug-In . SVG Version: 6.00 Build 0)  -->
<svg version="1.1" id="Layer_1" xmlns="http://www.w3.org/2000/svg" xmlns:xlink="http://www.w3.org/1999/xlink" x="0px" y="0px"
	 viewBox="-234 358.8 125.1 125.1" style="enable-background:new -234 358.8 125.1 125.1;" xml:space="preserve">
<style type="text/css">
	.st0{fill:#FFFFFF;}
</style>
<path class="st0" d="M-204.7,358.8h67.1c6.4,0,11.7,7.5,12.9,13.6v21.4l-12.7-13.3v-5.5c0-1.7-1.4-3.2-3.2-3.2h-61.1
	c-1.7,0-3.2,1.4-3.2,3.2v92.7c0,1.7,1.4,3.2,3.2,3.2h61.1c1.7,0,3.2-1.4,3.2-3.2v-7.4l12.7-12.4v22.4c-1.3,6-6.5,13.4-12.9,13.4
	h-67.1c-7.3,0-13.2-5.9-13.2-13.2v-98.7C-217.9,364.7-212,358.8-204.7,358.8z"/>
<g>
	<g>
		<path class="st0" d="M-117.4,418.1l-24.6-23c-0.6-0.6-1.3-0.9-2-0.9c-0.8,0-1.5,0.3-2,0.9c-0.6,0.6-0.9,1.2-0.9,2v13h-20.3
			c-0.8,0-1.5,0.3-2,0.9c-0.6,0.6-0.9,1.2-0.9,2v14.2c0,0.8,0.3,1.5,0.9,2c0.6,0.6,1.3,0.9,2,0.9h20.3v13c0,0.8,0.3,1.5,0.9,2
			c0.6,0.6,1.3,0.9,2,0.9c0.8,0,1.5-0.3,2-0.9l24.6-23c0.6-0.6,0.9-1.2,0.9-2C-116.6,419.3-116.8,418.7-117.4,418.1z"/>
	</g>
</g>
</svg>
