<?xml version="1.0" encoding="utf-8"?>
<!-- Generator: Adobe Illustrator 19.0.1, SVG Export Plug-In . SVG Version: 6.00 Build 0)  -->
<svg version="1.1" id="Layer_1" xmlns="http://www.w3.org/2000/svg" xmlns:xlink="http://www.w3.org/1999/xlink" x="0px" y="0px"
	 viewBox="-234 358.8 125.1 125.1" style="enable-background:new -234 358.8 125.1 125.1;" xml:space="preserve">
<style type="text/css">
	.st0{fill:#FFFFFF;}
</style>
<g>
	<g>
		<path class="st0" d="M-181.3,418.1l-24.6-23c-0.6-0.6-1.3-0.9-2-0.9c-0.8,0-1.5,0.3-2,0.9c-0.6,0.6-0.9,1.2-0.9,2v13h-20.3
			c-0.8,0-1.5,0.3-2,0.9c-0.6,0.6-0.9,1.2-0.9,2v14.2c0,0.8,0.3,1.5,0.9,2c0.6,0.6,1.3,0.9,2,0.9h20.3v13c0,0.8,0.3,1.5,0.9,2
			c0.6,0.6,1.3,0.9,2,0.9c0.8,0,1.5-0.3,2-0.9l24.6-23c0.6-0.6,0.9-1.2,0.9-2C-180.4,419.3-180.7,418.7-181.3,418.1z"/>
	</g>
</g>
<path class="st0" d="M-137.9,358.8H-205c-6.4,0-11.7,7.5-12.9,13.6v3.1l12.7,13.2v-13.7c0-1.7,1.4-3.2,3.2-3.2h61.1
	c1.7,0,3.2,1.4,3.2,3.2v92.7c0,1.7-1.4,3.2-3.2,3.2H-202c-1.7,0-3.2-1.4-3.2-3.2v-14.8l-12.7,12.5v5.1c1.3,6,6.5,13.4,12.9,13.4
	h67.1c7.3,0,13.2-5.9,13.2-13.2v-98.7C-124.7,364.7-130.6,358.8-137.9,358.8z"/>
</svg>
