<?xml version="1.0" encoding="UTF-8" standalone="no"?>
<svg width="40px" height="32px" viewBox="0 0 40 32" version="1.1" xmlns="http://www.w3.org/2000/svg" xmlns:xlink="http://www.w3.org/1999/xlink" xmlns:sketch="http://www.bohemiancoding.com/sketch/ns">
    <!-- Generator: Sketch 3.3.3 (12081) - http://www.bohemiancoding.com/sketch -->
    <title>warning</title>
    <desc>Created with Sketch.</desc>
    <defs></defs>
    <g id="Page-1" stroke="none" stroke-width="1" fill="none" fill-rule="evenodd" sketch:type="MSPage">
        <g id="warning" sketch:type="MSLayerGroup" transform="translate(0.000000, -1.000000)">
            <path d="M22.2315789,2.51789474 C21.0042105,0.553684211 18.9957895,0.553684211 17.7684211,2.51789474 L1.17894737,29.0610526 C-0.0484210526,31.0252632 0.842105263,32.6315789 3.15789474,32.6315789 L36.8421053,32.6315789 C39.1578947,32.6315789 40.0484211,31.0252632 38.8210526,29.0610526 L22.2315789,2.51789474" id="Fill-1" fill="#F0C330" sketch:type="MSShapeGroup"></path>
            <path d="M21.3168421,20.7325804 L21.8726316,9.28836986 L17.8557895,9.28836986 L18.4368421,20.7325804 L21.3168421,20.7325804 Z M19.8768421,26.593633 C21.2410526,26.593633 22.1252632,25.6083699 22.1252632,24.2946856 C22.1,22.9557383 21.2157895,21.9957383 19.8768421,21.9957383 C18.5378947,21.9957383 17.6031579,22.9557383 17.6031579,24.2946856 C17.6031579,25.6083699 18.5126316,26.593633 19.8768421,26.593633 L19.8768421,26.593633 Z" id="!" fill="#000000" sketch:type="MSShapeGroup"></path>
        </g>
    </g>
</svg>