<svg xmlns="http://www.w3.org/2000/svg" viewBox="-143.6 358.3 125.1 125.1" enable-background="new -143.6 358.3 125.1 125.1"><style type="text/css">.st0{fill:#FFFFFF;}</style><path class="st0" d="M-19.1 410.1c-.4-.6-1-.9-1.7-1l-14.9-2.3c-.8-2.6-1.9-5.3-3.3-8 1-1.4 2.4-3.3 4.4-5.7 2-2.5 3.3-4.3 4.2-5.4.4-.6.7-1.2.7-1.9 0-.8-.2-1.4-.6-1.8-2-2.8-6.4-7.4-13.4-13.9-.6-.5-1.3-.8-2-.8-.8 0-1.5.2-2 .7l-11.6 8.7c-2.2-1.1-4.7-2.1-7.3-3l-2.3-15c-.1-.7-.4-1.3-.9-1.8-.6-.5-1.2-.7-2-.7H-90c-1.6 0-2.6.8-2.9 2.3-.7 2.7-1.5 7.8-2.4 15.2-2.6.8-5 1.8-7.4 3.1l-11.2-8.7c-.7-.5-1.4-.8-2.1-.8-1.2 0-3.8 1.9-7.7 5.8-3.9 3.9-6.6 6.8-8 8.8-.5.7-.7 1.3-.7 1.9 0 .7.3 1.3.8 2 3.6 4.4 6.5 8.1 8.7 11.2-1.4 2.5-2.4 5-3.2 7.5l-15.2 2.3c-.6.1-1.1.5-1.5 1.1-.4.6-.7 1.2-.7 1.9v18.1c0 .7.2 1.3.7 1.9.4.6 1 .9 1.7 1l14.9 2.2c.8 2.7 1.9 5.3 3.3 8.1-1 1.4-2.4 3.3-4.4 5.7-2 2.5-3.3 4.3-4.2 5.4-.4.6-.7 1.2-.7 1.9s.2 1.3.6 1.9c2.1 2.9 6.6 7.5 13.4 13.7.6.6 1.3.9 2 .9.8 0 1.5-.2 2-.7l11.5-8.7c2.2 1.1 4.7 2.1 7.3 3l2.3 15c.1.7.4 1.3.9 1.8.6.5 1.2.7 2 .7H-72c1.6 0 2.6-.8 2.9-2.3.7-2.7 1.5-7.8 2.4-15.2 2.6-.8 5-1.8 7.4-3.1l11.2 8.8c.8.5 1.5.7 2.1.7 1.2 0 3.7-1.9 7.7-5.8 3.9-3.9 6.6-6.8 8.1-8.8.5-.5.7-1.2.7-1.9s-.3-1.4-.8-2c-3.9-4.8-6.8-8.5-8.7-11.2 1.1-2 2.1-4.5 3.2-7.4l15.1-2.3c.7-.1 1.2-.5 1.6-1.1s.6-1.2.6-1.9V412c.1-.7-.1-1.3-.6-1.9zm-47.2 25.5c-4.1 4.1-9 6.1-14.7 6.1-5.8 0-10.7-2-14.7-6.1-4.1-4.1-6.1-9-6.1-14.7 0-5.8 2-10.7 6.1-14.7 4.1-4.1 9-6.1 14.7-6.1 5.8 0 10.7 2 14.7 6.1 4.1 4.1 6.1 9 6.1 14.7.1 5.7-2 10.7-6.1 14.7z"/></svg>