<svg xmlns="http://www.w3.org/2000/svg" viewBox="-234 358.8 125.1 125.1" enable-background="new -234 358.8 125.1 125.1"><style type="text/css">.st0{fill:#FFFFFF;}</style><path class="st0" d="M-181.3 418.1l-24.6-23c-.6-.6-1.3-.9-2-.9-.8 0-1.5.3-2 .9-.6.6-.9 1.2-.9 2v13h-20.3c-.8 0-1.5.3-2 .9-.6.6-.9 1.2-.9 2v14.2c0 .8.3 1.5.9 2 .6.6 1.3.9 2 .9h20.3v13c0 .8.3 1.5.9 2 .6.6 1.3.9 2 .9.8 0 1.5-.3 2-.9l24.6-23c.6-.6.9-1.2.9-2s-.3-1.4-.9-2zM-137.9 358.8H-205c-6.4 0-11.7 7.5-12.9 13.6v3.1l12.7 13.2V375c0-1.7 1.4-3.2 3.2-3.2h61.1c1.7 0 3.2 1.4 3.2 3.2v92.7c0 1.7-1.4 3.2-3.2 3.2H-202c-1.7 0-3.2-1.4-3.2-3.2v-14.8l-12.7 12.5v5.1c1.3 6 6.5 13.4 12.9 13.4h67.1c7.3 0 13.2-5.9 13.2-13.2V372c0-7.3-5.9-13.2-13.2-13.2z"/></svg>