<svg width="40" height="32" viewBox="0 0 40 32" xmlns="http://www.w3.org/2000/svg"><title>warning</title><desc>Created with Sketch.</desc><g fill="none"><path d="M22.232 1.518c-1.228-1.964-3.236-1.964-4.464 0L1.178 28.06c-1.226 1.965-.336 3.572 1.98 3.572h33.684c2.316 0 3.206-1.607 1.98-3.57L22.23 1.517" fill="#F0C330"/><path d="M21.317 19.733l.556-11.445h-4.017l.58 11.445h2.88zm-1.44 6.86c1.364 0 2.248-.985 2.248-2.298-.025-1.34-.91-2.3-2.248-2.3-1.34 0-2.274.96-2.274 2.3 0 1.313.91 2.3 2.274 2.3z" fill="#000"/></g></svg>